<?xml version="1.0" encoding="UTF-8"?>
<svg width="193px" height="189px" viewBox="0 0 193 189" version="1.1" xmlns="http://www.w3.org/2000/svg" xmlns:xlink="http://www.w3.org/1999/xlink">
    <!-- Generator: Sketch 3.8.3 (29802) - http://www.bohemiancoding.com/sketch -->
    <title>output</title>
    <desc>Created with Sketch.</desc>
    <defs>
        <radialGradient cx="15.6406796%" cy="11.5012629%" fx="15.6406796%" fy="11.5012629%" r="132.387617%" id="radialGradient-1">
            <stop stop-color="#F5A623" offset="0%"></stop>
            <stop stop-color="#000000" offset="100%"></stop>
        </radialGradient>
        <path d="M96.5,146.514392 C95.5885614,146.579922 94.6621612,146.136887 93.9676572,145.185593 L50.2400518,85.2898766 C49.4995868,84.9503766 49,85.5883154 49,87.1090509 L49,185.008859 C49,187.205012 47.2047175,189 44.9901243,189 L4.00987566,189 C1.7874392,189 0,187.213105 0,185.008859 L0,3.99114075 C0,1.7949885 1.79528248,0 4.00987566,0 L45.0074266,0.0127770946 C47.2085706,0.0134630923 50.0511904,1.46086085 51.3478995,3.24562776 L94.3260906,62.400033 C94.9343913,63.2372871 95.7209269,63.681004 96.5189659,63.7314144 C97.3032891,63.668695 98.0746354,63.2248629 98.6739094,62.400033 L141.652101,3.24562776 C142.94881,1.46086085 145.791429,0.0134630923 147.992573,0.0127770946 L188.990124,0 C191.204718,0 193,1.7949885 193,3.99114075 L193,185.008859 C193,187.213105 191.212561,189 188.990124,189 L148.009876,189 C145.795282,189 144,187.205012 144,185.008859 L144,87.1090509 C144,85.5883154 143.500413,84.9503766 142.759948,85.2898766 L99.0323428,145.185593 C98.3378388,146.136887 97.4114386,146.579922 96.5,146.514392 L96.5,146.514392 Z" id="path-2"></path>
        <mask id="mask-3" maskContentUnits="userSpaceOnUse" maskUnits="objectBoundingBox" x="0" y="0" width="193" height="189" fill="white">
            <use xlink:href="#path-2"></use>
        </mask>
        <rect id="path-4" x="0" y="0" width="47" height="188" rx="4"></rect>
        <mask id="mask-5" maskContentUnits="userSpaceOnUse" maskUnits="objectBoundingBox" x="0" y="0" width="47" height="188" fill="white">
            <use xlink:href="#path-4"></use>
        </mask>
    </defs>
    <g id="Page-1" stroke="none" stroke-width="1" fill="none" fill-rule="evenodd">
        <g id="output">
            <g id="Group-5">
                <use id="Combined-Shape" stroke="#000000" mask="url(#mask-3)" stroke-width="10" fill="url(#radialGradient-1)" xlink:href="#path-2"></use>
                <g id="Group-4" transform="translate(1.000000, 1.000000)">
                    <use id="Rectangle-6" stroke="#000000" mask="url(#mask-5)" stroke-width="10" fill="#F6A623" xlink:href="#path-4"></use>
                    <ellipse id="Oval-1" stroke="#000000" stroke-width="5" fill="#FFFFFF" cx="28.4711538" cy="20.7645503" rx="5.875" ry="5.84391534"></ellipse>
                    <g id="Group-3" transform="translate(2.711538, 19.894180)" fill="#000000">
                        <path d="M0,2.98412698 C0,1.33603916 1.33026682,0 2.98276145,0 L9.67108471,0 C11.3184184,0 12.6538462,1.33939269 12.6538462,2.98412698 C12.6538462,4.63221481 11.3235793,5.96825397 9.67108471,5.96825397 L2.98276145,5.96825397 C1.33542779,5.96825397 0,4.62886128 0,2.98412698 Z M0,20.7645503 C0,19.1164624 1.33821996,17.7804233 2.99253976,17.7804233 L15.0074602,17.7804233 C16.6601943,17.7804233 18,19.119816 18,20.7645503 C18,22.4126381 16.66178,23.7486772 15.0074602,23.7486772 L2.99253976,23.7486772 C1.33980569,23.7486772 0,22.4092846 0,20.7645503 Z M0,38.5449735 C0,36.8968857 1.33026682,35.5608466 2.98276145,35.5608466 L9.67108471,35.5608466 C11.3184184,35.5608466 12.6538462,36.9002392 12.6538462,38.5449735 C12.6538462,40.1930614 11.3235793,41.5291005 9.67108471,41.5291005 L2.98276145,41.5291005 C1.33542779,41.5291005 0,40.1897078 0,38.5449735 Z M0,56.3253968 C0,54.677309 1.33821996,53.3412698 2.99253976,53.3412698 L15.0074602,53.3412698 C16.6601943,53.3412698 18,54.6806625 18,56.3253968 C18,57.9734847 16.66178,59.3095238 15.0074602,59.3095238 L2.99253976,59.3095238 C1.33980569,59.3095238 0,57.9701311 0,56.3253968 Z M0,74.1058201 C0,72.4577323 1.33026682,71.1216931 2.98276145,71.1216931 L9.67108471,71.1216931 C11.3184184,71.1216931 12.6538462,72.4610858 12.6538462,74.1058201 C12.6538462,75.7539079 11.3235793,77.0899471 9.67108471,77.0899471 L2.98276145,77.0899471 C1.33542779,77.0899471 0,75.7505544 0,74.1058201 Z M0,91.8862434 C0,90.2381556 1.33821996,88.9021164 2.99253976,88.9021164 L15.0074602,88.9021164 C16.6601943,88.9021164 18,90.2415091 18,91.8862434 C18,93.5343312 16.66178,94.8703704 15.0074602,94.8703704 L2.99253976,94.8703704 C1.33980569,94.8703704 0,93.5309777 0,91.8862434 Z M0,109.666667 C0,108.018579 1.33026682,106.68254 2.98276145,106.68254 L9.67108471,106.68254 C11.3184184,106.68254 12.6538462,108.021932 12.6538462,109.666667 C12.6538462,111.314754 11.3235793,112.650794 9.67108471,112.650794 L2.98276145,112.650794 C1.33542779,112.650794 0,111.311401 0,109.666667 Z M0,127.44709 C0,125.799002 1.33821996,124.462963 2.99253976,124.462963 L15.0074602,124.462963 C16.6601943,124.462963 18,125.802356 18,127.44709 C18,129.095178 16.66178,130.431217 15.0074602,130.431217 L2.99253976,130.431217 C1.33980569,130.431217 0,129.091824 0,127.44709 Z M0,145.227513 C0,146.875601 1.33026682,148.21164 2.98276145,148.21164 L9.67108471,148.21164 C11.3184184,148.21164 12.6538462,146.872248 12.6538462,145.227513 C12.6538462,143.579425 11.3235793,142.243386 9.67108471,142.243386 L2.98276145,142.243386 C1.33542779,142.243386 0,143.582779 0,145.227513 Z" id="Combined-Shape"></path>
                    </g>
                </g>
            </g>
        </g>
    </g>
</svg>